<?xml version="1.0" standalone="no"?><svg xmlns="http://www.w3.org/2000/svg" viewBox="0 0 1440 320"><path fill="#f79a2f" fill-opacity="1" d="M0,96L24,133.3C48,171,96,245,144,266.7C192,288,240,256,288,218.7C336,181,384,139,432,144C480,149,528,203,576,192C624,181,672,107,720,80C768,53,816,75,864,80C912,85,960,75,1008,74.7C1056,75,1104,85,1152,96C1200,107,1248,117,1296,112C1344,107,1392,85,1416,74.7L1440,64L1440,0L1416,0C1392,0,1344,0,1296,0C1248,0,1200,0,1152,0C1104,0,1056,0,1008,0C960,0,912,0,864,0C816,0,768,0,720,0C672,0,624,0,576,0C528,0,480,0,432,0C384,0,336,0,288,0C240,0,192,0,144,0C96,0,48,0,24,0L0,0Z"></path></svg>