<?xml version="1.0" standalone="no"?><svg xmlns="http://www.w3.org/2000/svg" viewBox="0 0 1440 320"><path fill="#f79a2f" fill-opacity="1" d="M0,96L21.8,112C43.6,128,87,160,131,186.7C174.5,213,218,235,262,208C305.5,181,349,107,393,106.7C436.4,107,480,181,524,213.3C567.3,245,611,235,655,213.3C698.2,192,742,160,785,165.3C829.1,171,873,213,916,234.7C960,256,1004,256,1047,224C1090.9,192,1135,128,1178,90.7C1221.8,53,1265,43,1309,74.7C1352.7,107,1396,181,1418,218.7L1440,256L1440,320L1418.2,320C1396.4,320,1353,320,1309,320C1265.5,320,1222,320,1178,320C1134.5,320,1091,320,1047,320C1003.6,320,960,320,916,320C872.7,320,829,320,785,320C741.8,320,698,320,655,320C610.9,320,567,320,524,320C480,320,436,320,393,320C349.1,320,305,320,262,320C218.2,320,175,320,131,320C87.3,320,44,320,22,320L0,320Z"></path></svg>